<?xml version="1.0" encoding="UTF-8" standalone="no"?>
<!-- Created with Inkscape (http://www.inkscape.org/) -->
<svg
   xmlns:dc="http://purl.org/dc/elements/1.1/"
   xmlns:cc="http://creativecommons.org/ns#"
   xmlns:rdf="http://www.w3.org/1999/02/22-rdf-syntax-ns#"
   xmlns:svg="http://www.w3.org/2000/svg"
   xmlns="http://www.w3.org/2000/svg"
   xmlns:sodipodi="http://sodipodi.sourceforge.net/DTD/sodipodi-0.dtd"
   xmlns:inkscape="http://www.inkscape.org/namespaces/inkscape"
   width="214.11"
   height="258"
   id="svg2"
   sodipodi:version="0.32"
   inkscape:version="0.46"
   version="1.0"
   sodipodi:docname="大一大万大吉.svg"
   inkscape:output_extension="org.inkscape.output.svg.inkscape">
  <defs
     id="defs4">
    <inkscape:perspective
       sodipodi:type="inkscape:persp3d"
       inkscape:vp_x="0 : 526.18109 : 1"
       inkscape:vp_y="0 : 1000 : 0"
       inkscape:vp_z="744.09448 : 526.18109 : 1"
       inkscape:persp3d-origin="372.04724 : 350.78739 : 1"
       id="perspective10" />
    <inkscape:perspective
       id="perspective2390"
       inkscape:persp3d-origin="372.04724 : 350.78739 : 1"
       inkscape:vp_z="744.09448 : 526.18109 : 1"
       inkscape:vp_y="0 : 1000 : 0"
       inkscape:vp_x="0 : 526.18109 : 1"
       sodipodi:type="inkscape:persp3d" />
    <inkscape:perspective
       id="perspective3203"
       inkscape:persp3d-origin="372.04724 : 350.78739 : 1"
       inkscape:vp_z="744.09448 : 526.18109 : 1"
       inkscape:vp_y="0 : 1000 : 0"
       inkscape:vp_x="0 : 526.18109 : 1"
       sodipodi:type="inkscape:persp3d" />
  </defs>
  <sodipodi:namedview
     id="base"
     pagecolor="#ffffff"
     bordercolor="#666666"
     borderopacity="1.0"
     gridtolerance="10000"
     guidetolerance="10"
     objecttolerance="10"
     inkscape:pageopacity="0.0"
     inkscape:pageshadow="2"
     inkscape:zoom="1.9651163"
     inkscape:cx="107.055"
     inkscape:cy="129"
     inkscape:document-units="px"
     inkscape:current-layer="layer1"
     showgrid="false"
     inkscape:window-width="1024"
     inkscape:window-height="712"
     inkscape:window-x="0"
     inkscape:window-y="22" />
  <metadata
     id="metadata7">
    <rdf:RDF>
      <cc:Work
         rdf:about="">
        <dc:format>image/svg+xml</dc:format>
        <dc:type
           rdf:resource="http://purl.org/dc/dcmitype/StillImage" />
      </cc:Work>
    </rdf:RDF>
  </metadata>
  <g
     inkscape:label="Layer 1"
     inkscape:groupmode="layer"
     id="layer1"
     transform="translate(-364.96877,-293.09718)">
    <g
       id="g2387">
      <path
         sodipodi:nodetypes="cscccssscccccc"
         d="M 492.78123,549.03379 C 492.19503,548.45167 491.71541,544.8803 491.71541,541.09746 C 491.71541,537.31463 490.11177,529.67434 488.15176,524.11909 L 484.58812,514.01863 L 520.30042,512.49127 C 566.30895,510.52355 571.62164,513.06274 560.31076,531.61426 C 557.52176,536.18865 555.23556,542.21976 555.23033,545.01669 C 555.22136,549.82278 553.5357,550.10178 524.53395,550.09712 C 507.65616,550.09443 493.36744,549.61593 492.78123,549.03379 z M 544.3774,534.01624 C 548.25828,520.16551 547.44611,522.05396 521.03002,522.22197 C 495.18209,523.51432 501.67263,521.30519 502.93761,535.30606 C 503.4979,542.28131 500.21416,541.74121 522.42907,541.20147 C 547.53712,541.5613 540.73663,541.41651 544.3774,534.01624 z"
         style="fill:#0080ff;fill-opacity:1"
         id="path3223" />
      <path
         sodipodi:nodetypes="cssssscccccccssssccccccccsccc"
         id="path3219"
         d="M 378.74135,535.67941 C 388.1038,522.06881 391.01368,509.1328 392.6328,496.11261 C 394.1189,484.16219 392.34358,487.85691 381.82703,487.85691 C 374.02467,487.85691 370.18314,486.53752 368.05262,483.12606 C 365.26693,478.66541 366.57297,478.29363 390.91818,476.61688 C 405.11922,475.6388 422.07846,473.69327 428.60542,472.29351 C 439.04125,470.05543 441.80122,470.45755 451.48777,475.62739 L 462.50291,481.50637 L 433.92548,482.22461 L 405.10265,485.39674 L 404.85727,491.82852 L 404.36649,499.24186 L 423.76461,497.20516 C 433.89373,496.35493 444.65531,494.93911 447.67918,494.05892 C 451.59261,492.91979 453.93147,493.86793 455.7943,497.34871 C 459.67672,504.60306 450.81637,538.28859 443.45874,544.24647 C 437.218,549.2999 423.12955,550.47826 423.12955,545.94679 C 423.12955,544.36535 419.00069,539.17742 413.95429,534.41804 L 404.77901,525.76464 L 418.39967,530.98085 L 432.02031,536.19706 L 436.4657,530.7972 C 438.91065,527.82727 440.91107,521.21705 440.91107,516.10783 L 440.91107,506.81833 L 420.69356,509.21302 C 401.89339,511.43985 402.57958,508.63087 398.97868,518.1489 C 395.11187,528.36975 384.30814,544.49976 376.90417,546.47932 L 370.05213,548.3113 L 378.74135,535.67941 z"
         style="fill:#0080ff;fill-opacity:1" />
      <path
         sodipodi:nodetypes="cccsscccsssssssssssc"
         id="path3217"
         d="M 477.10917,505.25948 C 471.52797,499.67463 473.63475,498.01778 486.31745,498.01778 C 505.07263,494.54747 518.3337,499.94896 517.35361,491.00267 C 517.40015,486.03099 519.48995,486.71922 500.91722,487.85691 C 491.89071,488.40984 486.18831,486.56912 484.09476,484.04658 C 481.33387,480.71989 483.59062,478.84813 499.48717,478.84813 L 517.00076,478.84813 L 515.67989,471.3455 C 514.31234,464.05592 514.77918,462.45474 518.272,462.45474 C 520.615,462.45474 524.75759,463.64582 527.47775,465.10162 C 531.5045,467.25667 531.5401,468.51817 529.68819,472.85939 C 526.43337,480.48931 527.96271,478.43015 541.29808,477.38992 C 551.43425,476.58949 556.3034,477.8654 557.90569,480.42807 C 559.63151,483.18832 558.53524,484.2987 553.24911,484.71736 C 524.50315,486.99402 528.43054,484.07213 528.43054,492.07685 C 528.43054,497.90205 532.39688,495.82329 547.14289,494.43167 C 562.22195,493.00865 565.03587,493.42527 568.85587,497.64632 C 573.15392,502.39564 572.38894,502.52295 531.84497,503.80652 C 509.07515,504.52741 488.15911,505.86413 485.36487,506.777 C 482.51787,507.70715 478.88856,507.04002 477.10917,505.25948 z"
         style="fill:#0080ff;fill-opacity:1" />
      <path
         sodipodi:nodetypes="csscccssssssssscccsssssscccssscss"
         id="path3215"
         d="M 410.98231,391.63319 C 401.84033,386.74055 400.93316,388.08849 403.28627,403.0942 C 404.52019,410.96291 404.35385,418.33605 403.82356,418.86632 C 403.29328,419.39662 395.13932,420.19535 384.79362,421.25464 L 365.96877,423.1925 L 372.97272,427.87103 C 378.83501,431.8042 381.63531,432.1605 390.13656,430.00266 C 395.72293,428.58469 400.78087,428.20898 401.3761,429.17216 C 404.28369,433.8767 392.29219,452.2901 381.47159,459.73486 C 375.04243,464.15826 369.78912,468.29438 369.78911,468.92581 C 369.78911,471.59102 378.28802,469.72482 387.45125,465.05011 C 392.86641,462.2875 399.87911,456.27889 403.03712,451.70661 C 406.19514,447.13435 409.07274,443.00466 409.43203,442.51565 C 409.79133,442.02666 414.08579,445.61913 418.98288,450.51622 C 423.87995,455.4133 434.3078,461.82029 442.12637,464.74559 C 455.53107,469.76095 456.86878,469.82783 465.76817,465.99135 L 475.20828,461.92186 L 459.95461,457.57554 C 451.57189,455.18273 441.12997,451.3524 436.75575,449.04899 C 427.41585,444.13067 414.84633,429.99712 416.87892,426.70832 C 417.6561,425.45081 427.96702,424.85585 439.77326,425.3795 C 463.07257,426.41289 467.15301,423.74246 454.69473,415.57951 C 449.00322,411.85029 446.73415,412.54474 435.95293,414.38911 C 410.86126,418.68162 415.38849,420.7938 416.61715,407.91004 C 416.98102,404.09447 419.99044,398.16052 417.76525,396.33697 M 422.19417,396.6716 C 424.93795,398.94875 431.0775,398.9421 448.29982,396.58855 C 461.63545,394.76615 478.17721,394.23243 488.88398,395.28742 C 507.86964,397.15824 510.74479,395.54334 502.17211,387.78516 C 498.80297,384.73612 496.59855,383.37603 489.57607,383.46652 C 484.11415,383.53691 475.72331,384.46228 461.58795,386.17952 C 447.11796,387.93742 430.34868,388.82389 424.32581,388.14505 C 415.37729,387.1364 413.64805,387.61098 414.83034,390.69194"
         style="fill:#0080ff;fill-opacity:1" />
      <path
         sodipodi:nodetypes="cssssscccsscccsscccssssscccsc"
         id="path3213"
         d="M 480.28444,465.85449 C 491.44165,459.97257 499.19952,452.25412 504.66371,441.59915 C 507.32199,436.41561 508.35196,435.58479 511.02356,428.40213 C 511.3322,427.57236 503.75093,429.74546 496.72802,430.71136 C 486.98309,432.05162 482.47118,431.49263 477.67639,428.35096 C 468.08204,422.06451 470.00421,419.17781 482.63193,420.9086 C 488.81296,421.75582 497.95774,421.68215 502.95366,420.74491 L 512.03714,419.04083 L 512.03714,405.18477 C 512.03714,395.1091 510.44751,391.83756 512.99207,391.83756 C 515.94116,391.83756 520.60623,393.02695 526.73668,396.92981 C 529.85944,398.91786 525.4544,403.97153 525.08082,409.14555 L 524.3812,418.83551 L 535.35565,417.4467 C 541.39158,416.68285 548.00915,415.16653 550.06134,414.07708 C 553.83199,412.07536 567.92191,420.09536 567.92191,424.24336 C 567.92191,425.39074 558.20558,425.72334 546.33007,424.98243 L 524.73823,426.75866 L 524.73823,430.13051 C 524.73823,436.84171 536.85684,446.98119 545.58907,451.55361 C 550.44176,454.0946 559.38043,455.99426 566.01675,457.53132 C 572.65307,459.06838 578.08278,460.67347 578.08278,461.09819 C 578.08278,461.52294 575.31743,463.68238 571.93754,465.89696 C 566.37964,469.53865 564.54426,469.55287 552.73454,466.04575 C 545.30918,463.84066 535.30881,458.2218 529.55031,453.01934 L 517.89718,441.83514 L 510.01501,453.03867 C 500.42985,462.37851 485.35308,470.15706 477.19075,469.97368 C 474.07094,469.9036 475.03258,468.6232 480.28444,465.85449 z"
         style="fill:#0080ff;fill-opacity:1" />
      <path
         sodipodi:nodetypes="ccccssssssscccscccssssscccsc"
         id="path3209"
         d="M 515.84747,382.0332 C 495.19182,377.61804 490.69524,376.75356 476.25607,366.59746 L 462.14463,351.9235 L 454.52218,362.1524 C 440.48327,379.18405 419.09572,386.7274 391.59218,382.60298 C 376.86505,380.39451 378.32046,377.23019 394.40394,376.48971 C 415.42985,375.52169 432.15728,368.69594 442.50034,357.89139 C 453.49982,346.40113 459.90629,339.24395 449.16678,340.60745 C 440.9836,341.6464 411.73176,345.09256 407.55315,346.78217 C 403.5695,348.39292 390.10674,338.65809 390.10674,334.16676 C 390.10674,333.0862 397.53687,332.96333 406.61815,333.89373 C 415.69942,334.82414 430.69663,334.81012 439.94523,333.86257 L 456.27016,331.64899 L 455.62088,312.44638 C 454.38378,291.07572 454.73823,290.71764 468.44233,299.49476 C 474.54224,303.40161 474.60566,304.4543 469.90503,323.77727 L 468.10851,331.16224 L 486.84172,329.42118 C 497.14497,328.46359 509.84905,326.39956 515.07298,324.83443 C 522.86428,322.5001 526.63541,322.77714 536.05934,326.37617 C 559.67901,335.3966 553.67259,340.26689 521.0337,338.55966 C 494.73403,337.18403 468.85346,336.37915 468.85346,340.17858 C 468.85346,344.01782 481.74552,358.27654 492.80044,363.92867 C 499.41918,367.3127 512.6691,370.03843 532.1738,372.02846 L 561.57137,375.02785 L 549.18246,380.63805 C 542.36852,383.72365 536.08149,386.15504 535.21126,386.04113 C 534.34101,385.92725 525.6273,384.12368 515.84747,382.0332 z"
         style="fill:#0080ff;fill-opacity:1" />
    </g>
  </g>
</svg>
