<?xml version="1.0" encoding="UTF-8" standalone="no"?>
<!-- Created with Inkscape (http://www.inkscape.org/) -->

<svg
   xmlns:dc="http://purl.org/dc/elements/1.1/"
   xmlns:cc="http://creativecommons.org/ns#"
   xmlns:rdf="http://www.w3.org/1999/02/22-rdf-syntax-ns#"
   xmlns:svg="http://www.w3.org/2000/svg"
   xmlns="http://www.w3.org/2000/svg"
   version="1.1"
   width="688"
   height="688"
   id="svg2">
  <defs
     id="defs4" />
  <metadata
     id="metadata7">
    <rdf:RDF>
      <cc:Work
         rdf:about="">
        <dc:format>image/svg+xml</dc:format>
        <dc:type
           rdf:resource="http://purl.org/dc/dcmitype/StillImage" />
        <dc:title></dc:title>
      </cc:Work>
    </rdf:RDF>
  </metadata>
  <g
     transform="translate(-28.047241,-182.18109)"
     id="layer1">
    <rect
       width="688"
       height="688"
       x="28.047241"
       y="182.18109"
       id="rect3888"
       style="fill:#000000;fill-opacity:1;fill-rule:nonzero;stroke:none" />
    <g
       transform="matrix(0.96257367,0,0,0.98856999,17.217783,2.836706)"
       id="g3907">
      <path
         d="m 596.25044,330.9735 c -11.24817,6.21915 -18.07346,9.73994 -30.51625,12.36101 -15.11421,3.14512 -60.05831,10.1337 -82.76169,12.01136 -63.63475,3.43734 -138.96041,9.57877 -160.31997,-2.83708 4.13242,14.17988 9.72656,41.41873 28.62515,40.40935 26.35758,4.33317 87.15489,1.17031 134.04222,-2.70743 23.44367,-1.93886 69.11192,-8.95266 86.23822,-12.51648 7.15772,-1.40262 23.30249,-1.42913 28.95415,-1.22251 16.61085,4.3599 23.43968,-27.54472 -4.26183,-45.49822 z"
         id="path2985"
         style="font-size:medium;font-style:normal;font-variant:normal;font-weight:normal;font-stretch:normal;text-indent:0;text-align:start;text-decoration:none;line-height:normal;letter-spacing:normal;word-spacing:normal;text-transform:none;direction:ltr;block-progression:tb;writing-mode:lr-tb;text-anchor:start;baseline-shift:baseline;color:#000000;fill:#ffffff;fill-opacity:1;stroke:none;stroke-width:30;marker:none;visibility:visible;display:inline;overflow:visible;enable-background:accumulate;font-family:Sans;-inkscape-font-specification:Sans" />
      <path
         d="m 460.52251,248.18157 c -3.49383,-0.0852 -21.47711,11.3564 -24.12601,13.63619 -2.99992,1.2267 5.38417,-1.7243 9.41493,15.14392 -3.49777,24.97492 1.84934,120.91276 -25.03793,163.47608 -26.60895,45.90843 -52.54302,67.47082 -94.06541,91.43204 20.21423,-1.56518 37.79447,-0.49636 72.70795,-16.76079 18.64136,-15.34704 35.24815,-36.43801 49.77093,-59.42797 29.04552,-45.97992 26.57007,-155.93053 31.20571,-189.03011 0.61525,-3.99389 -0.56679,-8.2303 -3.16093,-11.3287 -2.59415,-3.0984 -12.66939,-7.04427 -16.70924,-7.14066 z"
         id="path2987"
         style="font-size:medium;font-style:normal;font-variant:normal;font-weight:normal;font-stretch:normal;text-indent:0;text-align:start;text-decoration:none;line-height:normal;letter-spacing:normal;word-spacing:normal;text-transform:none;direction:ltr;block-progression:tb;writing-mode:lr-tb;text-anchor:start;baseline-shift:baseline;color:#000000;fill:#ffffff;fill-opacity:1;stroke:none;stroke-width:30;marker:none;visibility:visible;display:inline;overflow:visible;enable-background:accumulate;font-family:Sans;-inkscape-font-specification:Sans" />
      <path
         d="m 458.07318,387.53481 c -7.09962,0.2197 -3.31557,-1.3331 -5.39936,4.37653 -2.08383,5.70963 0.56294,12.41325 6.29442,15.94228 43.72819,43.63229 59.28074,108.0072 114.8094,139.51036 30.86504,4.13134 51.60991,-10.71579 83.65719,-8.04062 -38.03411,-12.36026 -45.98081,-16.99552 -87.95535,-44.54321 -28.619,-17.71427 -69.34976,-64.8375 -100.1659,-104.19623 -3.17014,-2.0759 -7.22482,-3.17578 -11.2404,-3.04911 z"
         id="path2989"
         style="font-size:medium;font-style:normal;font-variant:normal;font-weight:normal;font-stretch:normal;text-indent:0;text-align:start;text-decoration:none;line-height:normal;letter-spacing:normal;word-spacing:normal;text-transform:none;direction:ltr;block-progression:tb;writing-mode:lr-tb;text-anchor:start;baseline-shift:baseline;color:#000000;fill:#ffffff;fill-opacity:1;stroke:none;stroke-width:30;marker:none;visibility:visible;display:inline;overflow:visible;enable-background:accumulate;font-family:Sans;-inkscape-font-specification:Sans" />
      <path
         d="m 519.63035,553.91746 c -47.62234,10.30242 -100.04728,15.06717 -142.07611,13.45435 0.91144,9.73767 15.41227,32.42616 25.10739,33.40122 48.40647,-6.42433 87.34825,-11.61918 106.31386,-11.99039 4.26733,-0.0835 12.06427,1.80967 14.90403,2.97031 -1.01961,0.0532 23.70582,-4.34144 29.16935,-6.98687 8.85963,-9.50831 -21.38776,-30.82961 -33.41852,-30.84862 z"
         id="path2991"
         style="font-size:medium;font-style:normal;font-variant:normal;font-weight:normal;font-stretch:normal;text-indent:0;text-align:start;text-decoration:none;line-height:normal;letter-spacing:normal;word-spacing:normal;text-transform:none;direction:ltr;block-progression:tb;writing-mode:lr-tb;text-anchor:start;baseline-shift:baseline;color:#000000;fill:#ffffff;fill-opacity:1;stroke:none;stroke-width:30;marker:none;visibility:visible;display:inline;overflow:visible;enable-background:accumulate;font-family:Sans;-inkscape-font-specification:Sans" />
      <path
         d="m 459.13369,502.3246 c -3.27289,2.67808 -10.58764,9.28825 -10.51889,13.01735 l 5.45012,13.20197 c 5.42905,36.82736 4.50309,73.65474 5.45012,110.48211 -0.0671,3.76758 -3.60923,7.53329 -0.27348,10.21641 3.33575,2.68312 8.05661,4.24943 12.8078,4.24943 4.75118,0 9.47205,-1.56631 12.80781,-4.24943 3.33575,-2.68312 1.61042,-7.88957 1.54324,-11.65716 0.59449,-39.77851 -5.55177,-74.21117 3.6334,-120.80257 1.67611,-9.6487 -13.14288,-11.93729 -30.90012,-14.45811 z"
         id="path2993"
         style="font-size:medium;font-style:normal;font-variant:normal;font-weight:normal;font-stretch:normal;text-indent:0;text-align:start;text-decoration:none;line-height:normal;letter-spacing:normal;word-spacing:normal;text-transform:none;direction:ltr;block-progression:tb;writing-mode:lr-tb;text-anchor:start;baseline-shift:baseline;color:#000000;fill:#ffffff;fill-opacity:1;stroke:none;stroke-width:30;marker:none;visibility:visible;display:inline;overflow:visible;enable-background:accumulate;font-family:Sans;-inkscape-font-specification:Sans" />
      <path
         d="m 594.78943,620.37808 c -92.0922,8.54813 -212.53379,20.00441 -265.45853,16.73225 -1.97117,16.93816 26.39146,41.24237 42.48987,37.90061 83.93628,-18.70694 176.98558,-18.03468 247.59948,-7.09959 4.26646,0.34006 13.53745,-0.89154 16.76062,-3.88392 10.69614,-10.81263 -27.75723,-42.7453 -41.39144,-43.64935 z"
         id="path2995"
         style="font-size:medium;font-style:normal;font-variant:normal;font-weight:normal;font-stretch:normal;text-indent:0;text-align:start;text-decoration:none;line-height:normal;letter-spacing:normal;word-spacing:normal;text-transform:none;direction:ltr;block-progression:tb;writing-mode:lr-tb;text-anchor:start;baseline-shift:baseline;color:#000000;fill:#ffffff;fill-opacity:1;stroke:none;stroke-width:30;marker:none;visibility:visible;display:inline;overflow:visible;enable-background:accumulate;font-family:Sans;-inkscape-font-specification:Sans" />
      <path
         d="m 559.55014,674.13951 c -4.39534,0.26885 -19.10966,8.78627 -25.266,9.57973 -12.3127,1.5869 -33.15732,0.62014 -49.76424,2.7569 -16.60692,2.13676 -45.52382,4.02003 -60.11669,4.63583 -14.59287,0.61579 -43.14142,-4.08827 -46.15388,-5.24154 -9.24993,7.59289 -8.80838,10.34001 -10.0091,13.9083 8.66493,54.88965 20.6142,56.65443 20.38575,86.97062 5.08199,14.81365 8.50629,15.9477 13.58829,19.11634 5.94701,-1.39568 16.83652,-7.47189 22.99644,-8.32097 23.58576,-3.25102 47.42538,-1.11917 93.53049,0.92477 1.09446,2.29126 5.39915,-0.0396 8.57336,8.71211 1.27561,3.51703 15.21163,1.18614 18.906,0.59598 3.69436,-0.59015 8.73597,-0.97139 11.13533,-3.84189 2.39935,-2.8705 3.71884,-6.62273 3.64429,-10.3632 0,-4.72579 12.9791,-30.14674 14.87577,-53.44253 0.64761,-7.9545 1.27869,-17.95149 3.36315,-32.83245 0.72822,-5.19884 5.95484,-11.9736 5.85745,-17.64588 -8.63284,-10.67275 -16.69736,-12.82178 -25.54641,-15.51212 z m -14.03556,36.7099 c 0.10064,1.27799 0.28045,1.97354 0.32646,3.49319 0.24158,7.97849 -0.84652,12.1234 -1.20792,23.24092 -0.34358,10.56902 -4.58722,23.98391 -12.91696,29.4799 -41.78555,1.38973 -69.48839,7.69544 -111.84736,4.30936 -0.26949,-15.34053 -13.33903,-28.75276 -17.38225,-55.23809 5.7824,0.18139 13.36173,1.69277 19.83241,1.41971 16.20675,-0.6839 45.78228,-2.67552 62.79372,-4.86435 17.01143,-2.18882 41.43349,0.45771 53.18699,-1.05712 3.10006,-0.39955 4.81501,-0.52874 7.21491,-0.78352 z"
         id="path2997"
         style="font-size:medium;font-style:normal;font-variant:normal;font-weight:normal;font-stretch:normal;text-indent:0;text-align:start;text-decoration:none;line-height:normal;letter-spacing:normal;word-spacing:normal;text-transform:none;direction:ltr;block-progression:tb;writing-mode:lr-tb;text-anchor:start;baseline-shift:baseline;color:#000000;fill:#ffffff;fill-opacity:1;stroke:none;stroke-width:30;marker:none;visibility:visible;display:inline;overflow:visible;enable-background:accumulate;font-family:Sans;-inkscape-font-specification:Sans" />
      <path
         d="M 296.69456,650.39386 C 253.44691,659.8695 149.327,668.386 101.65523,664.22842 c 7.53766,14.25676 19.07403,23.89147 26.12235,28.59068 6.20924,-0.5414 6.13575,1.71308 14.58522,0.80484 5.24286,-0.56356 10.93199,-2.72597 16.9676,-3.42554 52.07465,-6.03579 129.94208,-14.45617 169.51679,-8.23358 14.80942,-7.49312 -18.01743,-38.63159 -32.15263,-31.57096 z"
         id="path3001"
         style="font-size:medium;font-style:normal;font-variant:normal;font-weight:normal;font-stretch:normal;text-indent:0;text-align:start;text-decoration:none;line-height:normal;letter-spacing:normal;word-spacing:normal;text-transform:none;direction:ltr;block-progression:tb;writing-mode:lr-tb;text-anchor:start;baseline-shift:baseline;color:#000000;fill:#ffffff;fill-opacity:1;stroke:none;stroke-width:30;marker:none;visibility:visible;display:inline;overflow:visible;enable-background:accumulate;font-family:Sans;-inkscape-font-specification:Sans" />
      <path
         d="m 181.76856,669.17524 c -2.7964,43.93827 -71.6425,115.46142 -101.951855,134.88104 24.770015,0 64.777395,-40.47697 80.797315,-56.20522 16.01993,-15.72824 44.71227,-51.20069 45.73095,-77.72861 z"
         id="path3003"
         style="font-size:medium;font-style:normal;font-variant:normal;font-weight:normal;font-stretch:normal;text-indent:0;text-align:start;text-decoration:none;line-height:normal;letter-spacing:normal;word-spacing:normal;text-transform:none;direction:ltr;block-progression:tb;writing-mode:lr-tb;text-anchor:start;baseline-shift:baseline;color:#000000;fill:#ffffff;fill-opacity:1;stroke:none;stroke-width:30;marker:none;visibility:visible;display:inline;overflow:visible;enable-background:accumulate;font-family:Sans;-inkscape-font-specification:Sans" />
      <path
         d="m 187.15483,694.00169 -7.81378,22.12471 c 41.26165,13.2931 67.76984,7.05425 105.23317,3.03814 1.85466,-0.18961 2.89123,-0.15941 3.76326,-0.128 2.05227,2.72926 2.10868,5.31419 0.53761,10.72658 -1.88202,6.48363 -5.68045,10.79207 -12.565,19.2627 -12.46571,15.33758 -29.82971,29.68187 -36.3014,34.45817 -28.95715,3.89065 -72.17562,-33.04977 -88.20409,-33.38868 5.8628,5.98846 63.45126,30.03617 65.20448,51.6342 1.7096,2.66156 7.97836,5.43357 15.42189,7.96931 7.44353,2.53573 13.84276,-0.68652 18.86751,-3.99367 8.62831,-5.67889 27.98367,-21.3816 44.08393,-41.19108 8.05013,-9.90474 18.89819,-31.76613 22.33539,-43.60739 1.36992,-17.6112 -12.34067,-19.0692 -23.97419,-26.98638 -24.6356,11.65922 -105.63944,14.08449 -106.58878,0.0814 z"
         id="path3005"
         style="font-size:medium;font-style:normal;font-variant:normal;font-weight:normal;font-stretch:normal;text-indent:0;text-align:start;text-decoration:none;line-height:normal;letter-spacing:normal;word-spacing:normal;text-transform:none;direction:ltr;block-progression:tb;writing-mode:lr-tb;text-anchor:start;baseline-shift:baseline;color:#000000;fill:#ffffff;fill-opacity:1;stroke:none;stroke-width:30;marker:none;visibility:visible;display:inline;overflow:visible;enable-background:accumulate;font-family:Sans;-inkscape-font-specification:Sans" />
      <path
         d="m 258.95682,303.42018 c -0.79487,0.72522 -1.20707,4.0332 -8.78068,8.07437 -40.45596,20.37774 -123.25388,30.1183 -154.945061,17.79244 8.736511,23.3296 18.327361,38.93843 39.338481,39.53063 46.40649,-7.49419 100.52444,-23.70413 147.18092,-26.8807 8.5464,-0.58188 8.93061,-1.02117 13.32689,-1.28815 12.5689,3.0745 5.03451,-32.62035 -36.12055,-37.22859 z"
         id="path3855"
         style="font-size:medium;font-style:normal;font-variant:normal;font-weight:normal;font-stretch:normal;text-indent:0;text-align:start;text-decoration:none;line-height:normal;letter-spacing:normal;word-spacing:normal;text-transform:none;direction:ltr;block-progression:tb;writing-mode:lr-tb;text-anchor:start;baseline-shift:baseline;color:#000000;fill:#ffffff;fill-opacity:1;stroke:none;stroke-width:30;marker:none;visibility:visible;display:inline;overflow:visible;enable-background:accumulate;font-family:Sans;-inkscape-font-specification:Sans" />
      <path
         d="m 203.51344,249.76655 c -7.24184,-0.34522 -27.08281,9.83857 -24.72656,11.73077 3.78279,1.38461 9.8424,8.00277 8.90204,14.70168 7.40623,70.88361 -44.81165,152.68316 -91.63427,181.24782 108.51106,-43.58809 115.86626,-121.66009 125.23499,-188.27998 0.55597,-3.13518 -0.15154,-6.51049 -1.89198,-9.02604 -1.74045,-2.51555 -13.03065,-10.18856 -15.88422,-10.37425 z"
         id="path3857"
         style="font-size:medium;font-style:normal;font-variant:normal;font-weight:normal;font-stretch:normal;text-indent:0;text-align:start;text-decoration:none;line-height:normal;letter-spacing:normal;word-spacing:normal;text-transform:none;direction:ltr;block-progression:tb;writing-mode:lr-tb;text-anchor:start;baseline-shift:baseline;color:#000000;fill:#ffffff;fill-opacity:1;stroke:none;stroke-width:30;marker:none;visibility:visible;display:inline;overflow:visible;enable-background:accumulate;font-family:Sans;-inkscape-font-specification:Sans" />
      <path
         d="m 195.09204,345.40517 c -3.97643,0.65207 -1.9618,-0.77054 -2.71693,3.64795 -0.75516,4.41848 -4.83842,15.31733 -1.35779,17.56627 33.29159,37.3419 50.36436,63.89176 87.44275,67.62853 18.34743,1.84906 52.25025,-9.8973 74.45289,-12.91215 -55.99087,-15.67541 -112.24222,-33.85303 -151.27735,-74.41936 -1.93423,-1.33672 -4.29465,-1.88186 -6.54357,-1.51124 z"
         id="path3859"
         style="font-size:medium;font-style:normal;font-variant:normal;font-weight:normal;font-stretch:normal;text-indent:0;text-align:start;text-decoration:none;line-height:normal;letter-spacing:normal;word-spacing:normal;text-transform:none;direction:ltr;block-progression:tb;writing-mode:lr-tb;text-anchor:start;baseline-shift:baseline;color:#000000;fill:#ffffff;fill-opacity:1;stroke:none;stroke-width:30;marker:none;visibility:visible;display:inline;overflow:visible;enable-background:accumulate;font-family:Sans;-inkscape-font-specification:Sans" />
      <path
         d="m 285.13793,441.10765 c -5.3044,1.40548 -8.22004,3.62871 -13.01506,4.68628 -34.4433,7.59667 -144.36965,22.71442 -171.13061,13.12527 4.04128,23.76943 22.06054,37.38107 31.36284,32.85385 43.19781,-9.04151 131.52805,-16.69685 168.35473,-16.64523 2.02415,0.13138 6.38776,-1.36156 7.85942,-4.19443 4.86812,-10.19713 -16.96601,-29.57102 -23.43132,-29.82574 z"
         id="path3861"
         style="font-size:medium;font-style:normal;font-variant:normal;font-weight:normal;font-stretch:normal;text-indent:0;text-align:start;text-decoration:none;line-height:normal;letter-spacing:normal;word-spacing:normal;text-transform:none;direction:ltr;block-progression:tb;writing-mode:lr-tb;text-anchor:start;baseline-shift:baseline;color:#000000;fill:#ffffff;fill-opacity:1;stroke:none;stroke-width:30;marker:none;visibility:visible;display:inline;overflow:visible;enable-background:accumulate;font-family:Sans;-inkscape-font-specification:Sans" />
      <path
         d="m 280.75302,529.48136 c -4.61143,2.45104 -6.27454,4.65177 -21.83479,8.69108 -38.85315,9.66939 -143.72952,14.07071 -156.2562,10.63549 1.97677,15.72586 13.32476,33.48471 24.86316,30.60632 58.27883,-9.55873 86.37034,-1.68418 170.18879,-17.8235 46.2539,-4.79503 -2.40452,-31.38037 -16.96096,-32.10939 z"
         id="path3863"
         style="font-size:medium;font-style:normal;font-variant:normal;font-weight:normal;font-stretch:normal;text-indent:0;text-align:start;text-decoration:none;line-height:normal;letter-spacing:normal;word-spacing:normal;text-transform:none;direction:ltr;block-progression:tb;writing-mode:lr-tb;text-anchor:start;baseline-shift:baseline;color:#000000;fill:#ffffff;fill-opacity:1;stroke:none;stroke-width:30;marker:none;visibility:visible;display:inline;overflow:visible;enable-background:accumulate;font-family:Sans;-inkscape-font-specification:Sans" />
      <path
         d="m 192.04959,491.86075 c -7.24974,-0.0603 -28.05371,11.8819 -25.62663,13.49508 3.83308,1.10971 10.14199,6.82689 9.45919,12.85686 9.52496,56.5365 -36.38705,112.31569 -76.376563,135.67354 46.844733,-3.52664 80.879843,-43.24293 99.897953,-81.27835 11.14469,-25.05203 10.43335,-46.24684 13.13473,-65.53537 0.43535,-2.82608 -0.40107,-5.82376 -2.23667,-8.01618 -1.83562,-2.19242 -15.39341,-7.12737 -18.25201,-7.19558 z"
         id="path3865"
         style="font-size:medium;font-style:normal;font-variant:normal;font-weight:normal;font-stretch:normal;text-indent:0;text-align:start;text-decoration:none;line-height:normal;letter-spacing:normal;word-spacing:normal;text-transform:none;direction:ltr;block-progression:tb;writing-mode:lr-tb;text-anchor:start;baseline-shift:baseline;color:#000000;fill:#ffffff;fill-opacity:1;stroke:none;stroke-width:30;marker:none;visibility:visible;display:inline;overflow:visible;enable-background:accumulate;font-family:Sans;-inkscape-font-specification:Sans" />
      <path
         d="m 166.50622,557.02017 c -4.42676,0.80082 -2.22056,-0.69654 -2.91733,3.7478 -0.6968,4.44432 1.67775,9.20536 5.64703,11.32253 28.21255,15.60381 74.27422,53.66326 95.54443,67.43476 29.96746,24.3482 43.58907,-16.78203 81.02647,-22.18761 -66.72755,-12.54789 -117.01414,-21.64496 -171.9294,-59.05245 -2.20869,-1.26344 -4.86765,-1.71977 -7.3712,-1.26503 z"
         id="path3867"
         style="font-size:medium;font-style:normal;font-variant:normal;font-weight:normal;font-stretch:normal;text-indent:0;text-align:start;text-decoration:none;line-height:normal;letter-spacing:normal;word-spacing:normal;text-transform:none;direction:ltr;block-progression:tb;writing-mode:lr-tb;text-anchor:start;baseline-shift:baseline;color:#000000;fill:#ffffff;fill-opacity:1;stroke:none;stroke-width:30;marker:none;visibility:visible;display:inline;overflow:visible;enable-background:accumulate;font-family:Sans;-inkscape-font-specification:Sans" />
    </g>
  </g>
</svg>
