<?xml version="1.0" encoding="UTF-8" standalone="no"?>
<!-- Created with Inkscape (http://www.inkscape.org/) -->

<svg
   xmlns:dc="http://purl.org/dc/elements/1.1/"
   xmlns:cc="http://creativecommons.org/ns#"
   xmlns:rdf="http://www.w3.org/1999/02/22-rdf-syntax-ns#"
   xmlns:svg="http://www.w3.org/2000/svg"
   xmlns="http://www.w3.org/2000/svg"
   xmlns:sodipodi="http://sodipodi.sourceforge.net/DTD/sodipodi-0.dtd"
   xmlns:inkscape="http://www.inkscape.org/namespaces/inkscape"
   width="251.7686"
   height="249.30028"
   id="svg2"
   sodipodi:version="0.32"
   inkscape:version="0.48.1 "
   version="1.0"
   sodipodi:docname="新しいテキスト ドキュメント.svg"
   inkscape:output_extension="org.inkscape.output.svg.inkscape">
  <defs
     id="defs4">
    <inkscape:perspective
       sodipodi:type="inkscape:persp3d"
       inkscape:vp_x="0 : 128 : 1"
       inkscape:vp_y="0 : 1000 : 0"
       inkscape:vp_z="256 : 128 : 1"
       inkscape:persp3d-origin="128 : 85.333333 : 1"
       id="perspective19" />
    <linearGradient
       id="linearGradient5371">
      <stop
         style="stop-color: rgb(23, 86, 111); stop-opacity: 1;"
         offset="0"
         id="stop5373" />
      <stop
         id="stop5379"
         offset="0.5"
         style="stop-color: rgb(23, 86, 111); stop-opacity: 1;" />
      <stop
         style="stop-color: rgb(23, 86, 111); stop-opacity: 1;"
         offset="1"
         id="stop5375" />
    </linearGradient>
    <inkscape:perspective
       id="perspective2886"
       inkscape:persp3d-origin="0.5 : 0.33333333 : 1"
       inkscape:vp_z="1 : 0.5 : 1"
       inkscape:vp_y="0 : 1000 : 0"
       inkscape:vp_x="0 : 0.5 : 1"
       sodipodi:type="inkscape:persp3d" />
  </defs>
  <sodipodi:namedview
     id="base"
     pagecolor="#ffffff"
     bordercolor="#666666"
     borderopacity="1.0"
     gridtolerance="10000"
     guidetolerance="10"
     objecttolerance="10"
     inkscape:pageopacity="0"
     inkscape:pageshadow="2"
     inkscape:zoom="1.0026553"
     inkscape:cx="318.64651"
     inkscape:cy="-62.391216"
     inkscape:document-units="px"
     inkscape:current-layer="layer1"
     width="256px"
     height="256px"
     inkscape:window-width="789"
     inkscape:window-height="846"
     inkscape:window-x="488"
     inkscape:window-y="33"
     showgrid="false"
     inkscape:window-maximized="0"
     showguides="true"
     inkscape:guide-bbox="true" />
  <metadata
     id="metadata7">
    <rdf:RDF>
      <cc:Work
         rdf:about="">
        <dc:format>image/svg+xml</dc:format>
        <dc:type
           rdf:resource="http://purl.org/dc/dcmitype/StillImage" />
      </cc:Work>
    </rdf:RDF>
  </metadata>
  <g
     inkscape:label="Layer 1"
     inkscape:groupmode="layer"
     id="layer1"
     transform="translate(-138.51711,-299.06165)">
    <rect
       style="fill:#000000;fill-opacity:1;fill-rule:nonzero;stroke:none"
       id="rect3220"
       width="251.7686"
       height="249.30028"
       x="138.51711"
       y="299.06165" />
    <g
       id="g3094"
       transform="translate(3.9891703,1.5663909)">
      <g
         id="g3060">
        <path
           inkscape:connector-curvature="0"
           style="fill:#ffffff;fill-opacity:1;fill-rule:nonzero;stroke:none"
           d="m 194.98614,358.39888 c -17.08458,0 -30.9375,13.85307 -30.9375,30.9375 0,17.08442 13.85292,30.96875 30.9375,30.96875 17.08458,0 30.96875,-13.88433 30.96875,-30.96875 0,-17.08442 -13.88417,-30.9375 -30.96875,-30.9375 z"
           id="path2854" />
        <path
           inkscape:connector-curvature="0"
           style="fill:#000000;fill-opacity:1;fill-rule:nonzero;stroke:none"
           d="m 188.68418,383.03443 12.63516,0 0,12.63516 -12.63516,0 0,-12.63516 z"
           id="path3151" />
      </g>
      <g
         transform="translate(65.410464,0)"
         id="g3064">
        <path
           id="path3066"
           d="m 194.98614,358.39888 c -17.08458,0 -30.9375,13.85307 -30.9375,30.9375 0,17.08442 13.85292,30.96875 30.9375,30.96875 17.08458,0 30.96875,-13.88433 30.96875,-30.96875 0,-17.08442 -13.88417,-30.9375 -30.96875,-30.9375 z"
           style="fill:#ffffff;fill-opacity:1;fill-rule:nonzero;stroke:none"
           inkscape:connector-curvature="0" />
        <path
           id="path3068"
           d="m 188.68418,383.03443 12.63516,0 0,12.63516 -12.63516,0 0,-12.63516 z"
           style="fill:#000000;fill-opacity:1;fill-rule:nonzero;stroke:none"
           inkscape:connector-curvature="0" />
      </g>
      <g
         id="g3070"
         transform="translate(130.82094,0)">
        <path
           inkscape:connector-curvature="0"
           style="fill:#ffffff;fill-opacity:1;fill-rule:nonzero;stroke:none"
           d="m 194.98614,358.39888 c -17.08458,0 -30.9375,13.85307 -30.9375,30.9375 0,17.08442 13.85292,30.96875 30.9375,30.96875 17.08458,0 30.96875,-13.88433 30.96875,-30.96875 0,-17.08442 -13.88417,-30.9375 -30.96875,-30.9375 z"
           id="path3072" />
        <path
           inkscape:connector-curvature="0"
           style="fill:#000000;fill-opacity:1;fill-rule:nonzero;stroke:none"
           d="m 188.68418,383.03443 12.63516,0 0,12.63516 -12.63516,0 0,-12.63516 z"
           id="path3074" />
      </g>
      <g
         transform="translate(0,65.586777)"
         id="g3076">
        <path
           id="path3078"
           d="m 194.98614,358.39888 c -17.08458,0 -30.9375,13.85307 -30.9375,30.9375 0,17.08442 13.85292,30.96875 30.9375,30.96875 17.08458,0 30.96875,-13.88433 30.96875,-30.96875 0,-17.08442 -13.88417,-30.9375 -30.96875,-30.9375 z"
           style="fill:#ffffff;fill-opacity:1;fill-rule:nonzero;stroke:none"
           inkscape:connector-curvature="0" />
        <path
           id="path3080"
           d="m 188.68418,383.03443 12.63516,0 0,12.63516 -12.63516,0 0,-12.63516 z"
           style="fill:#000000;fill-opacity:1;fill-rule:nonzero;stroke:none"
           inkscape:connector-curvature="0" />
      </g>
      <g
         id="g3082"
         transform="translate(65.410464,65.586777)">
        <path
           inkscape:connector-curvature="0"
           style="fill:#ffffff;fill-opacity:1;fill-rule:nonzero;stroke:none"
           d="m 194.98614,358.39888 c -17.08458,0 -30.9375,13.85307 -30.9375,30.9375 0,17.08442 13.85292,30.96875 30.9375,30.96875 17.08458,0 30.96875,-13.88433 30.96875,-30.96875 0,-17.08442 -13.88417,-30.9375 -30.96875,-30.9375 z"
           id="path3084" />
        <path
           inkscape:connector-curvature="0"
           style="fill:#000000;fill-opacity:1;fill-rule:nonzero;stroke:none"
           d="m 188.68418,383.03443 12.63516,0 0,12.63516 -12.63516,0 0,-12.63516 z"
           id="path3086" />
      </g>
      <g
         transform="translate(130.82094,65.586777)"
         id="g3088">
        <path
           id="path3090"
           d="m 194.98614,358.39888 c -17.08458,0 -30.9375,13.85307 -30.9375,30.9375 0,17.08442 13.85292,30.96875 30.9375,30.96875 17.08458,0 30.96875,-13.88433 30.96875,-30.96875 0,-17.08442 -13.88417,-30.9375 -30.96875,-30.9375 z"
           style="fill:#ffffff;fill-opacity:1;fill-rule:nonzero;stroke:none"
           inkscape:connector-curvature="0" />
        <path
           id="path3092"
           d="m 188.68418,383.03443 12.63516,0 0,12.63516 -12.63516,0 0,-12.63516 z"
           style="fill:#000000;fill-opacity:1;fill-rule:nonzero;stroke:none"
           inkscape:connector-curvature="0" />
      </g>
    </g>
  </g>
</svg>
